<?xml version="1.0" encoding="UTF-8" standalone="no"?>
<!-- Created with Inkscape (http://www.inkscape.org/) -->

<svg
   xmlns:dc="http://purl.org/dc/elements/1.1/"
   xmlns:cc="http://creativecommons.org/ns#"
   xmlns:rdf="http://www.w3.org/1999/02/22-rdf-syntax-ns#"
   xmlns:svg="http://www.w3.org/2000/svg"
   xmlns="http://www.w3.org/2000/svg"
   xmlns:sodipodi="http://sodipodi.sourceforge.net/DTD/sodipodi-0.dtd"
   xmlns:inkscape="http://www.inkscape.org/namespaces/inkscape"
   width="210mm"
   height="297mm"
   viewBox="0 0 210 297"
   version="1.1"
   id="svg8"
   inkscape:version="0.92.3 (2405546, 2018-03-11)"
   sodipodi:docname="book.svg">
  <defs
     id="defs2" />
  <sodipodi:namedview
     id="base"
     pagecolor="#ffffff"
     bordercolor="#666666"
     borderopacity="1.0"
     inkscape:pageopacity="0.0"
     inkscape:pageshadow="2"
     inkscape:zoom="0.49497475"
     inkscape:cx="517.5695"
     inkscape:cy="450.64356"
     inkscape:document-units="mm"
     inkscape:current-layer="layer1"
     showgrid="false"
     showguides="false"
     inkscape:window-width="1920"
     inkscape:window-height="1001"
     inkscape:window-x="-9"
     inkscape:window-y="-9"
     inkscape:window-maximized="1"
     inkscape:snap-bbox="false"
     inkscape:snap-bbox-midpoints="true"
     inkscape:snap-bbox-edge-midpoints="true"
     inkscape:bbox-nodes="true"
     inkscape:snap-object-midpoints="true" />
  <metadata
     id="metadata5">
    <rdf:RDF>
      <cc:Work
         rdf:about="">
        <dc:format>image/svg+xml</dc:format>
        <dc:type
           rdf:resource="http://purl.org/dc/dcmitype/StillImage" />
        <dc:title></dc:title>
      </cc:Work>
    </rdf:RDF>
  </metadata>
  <g
     inkscape:label="Layer 1"
     inkscape:groupmode="layer"
     id="layer1">
    <g
       id="g887"
       transform="rotate(-13.727097,253.32995,-122.45185)" />
    <g
       id="g1670"
       transform="translate(0,0.20600128)" />
    <g
       id="g1009"
       transform="matrix(1.3959039,0,0,1.3959039,-11.4541,-36.783676)">
      <rect
         style="fill:#b82717;fill-opacity:1;stroke-width:0.26458332"
         id="rect815-6"
         width="134.9375"
         height="167.06548"
         x="18.032213"
         y="70.313751" />
      <rect
         style="fill:#e1aaaf;fill-opacity:1;stroke-width:0.25852796"
         id="rect815-0"
         width="134.9375"
         height="159.50595"
         x="16.239542"
         y="72.860123" />
      <g
         id="g1690">
        <g
           id="g1719">
          <rect
             y="70.313751"
             x="14.079605"
             height="167.06548"
             width="134.9375"
             id="rect815"
             style="fill:#e74d3c;fill-opacity:1;stroke-width:0.26458332" />
        </g>
      </g>
      <g
         transform="translate(5.61266,-48.375784)"
         id="g985">
        <path
           style="fill:#ffffff;fill-opacity:1;stroke-width:0.08678643"
           d="m 28.417036,152.61303 a 11.480409,11.480409 0 0 0 -11.480386,11.48039 11.480409,11.480409 0 0 0 11.480386,11.48055 11.480409,11.480409 0 0 0 4.091507,-0.76785 v -5.58552 a 6.5602337,6.5602337 0 0 1 -4.091507,1.43316 6.5602337,6.5602337 0 0 1 -6.560171,-6.56034 6.5602337,6.5602337 0 0 1 6.560171,-6.56017 6.5602337,6.5602337 0 0 1 4.091507,1.44028 v -5.60315 a 11.480409,11.480409 0 0 0 -4.091507,-0.75735 z"
           id="path1065"
           inkscape:connector-curvature="0" />
        <path
           inkscape:connector-curvature="0"
           style="fill:#ffffff;fill-opacity:1;stroke-width:0.08678643"
           d="M 50.791203,152.61303 A 11.480409,11.480409 0 0 0 39.310819,164.09342 11.480409,11.480409 0 0 0 50.791203,175.57397 11.480409,11.480409 0 0 0 62.27176,164.09342 11.480409,11.480409 0 0 0 50.791203,152.61303 Z m 0,4.92022 a 6.560234,6.560234 0 0 1 6.560342,6.56017 6.560234,6.560234 0 0 1 -6.560342,6.56034 6.560234,6.560234 0 0 1 -6.560172,-6.56034 6.560234,6.560234 0 0 1 6.560172,-6.56017 z"
           id="path1065-4" />
        <rect
           style="fill:#ffffff;fill-opacity:1;stroke-width:0.08678643"
           id="rect1101"
           width="4.9201756"
           height="22.960819"
           x="100.15549"
           y="152.6131" />
        <path
           style="fill:#ffffff;fill-opacity:1;stroke-width:0.09962407"
           d="m 69.074038,152.6131 v 22.96081 h 4.920214 v -9.99383 l 4.378645,9.99383 h 5.681458 l 4.378644,-9.99383 v 9.99383 h 4.920219 V 152.6131 h -4.920219 l -7.219373,16.47732 -7.219374,-16.47732 z"
           id="rect1101-2"
           inkscape:connector-curvature="0" />
        <path
           style="fill:#ffffff;fill-opacity:1;stroke-width:0.08678643"
           d="m 123.35833,152.61303 a 11.480409,11.480409 0 0 0 -11.48039,11.48039 11.480409,11.480409 0 0 0 11.48039,11.48055 11.480409,11.480409 0 0 0 4.0915,-0.76785 v -5.58552 a 6.5602337,6.5602337 0 0 1 -4.0915,1.43316 6.5602337,6.5602337 0 0 1 -6.56018,-6.56034 6.5602337,6.5602337 0 0 1 6.56018,-6.56017 6.5602337,6.5602337 0 0 1 4.0915,1.44028 v -5.60315 a 11.480409,11.480409 0 0 0 -4.0915,-0.75735 z"
           id="path1065-49"
           inkscape:connector-curvature="0" />
      </g>
      <g
         id="g1677">
        <rect
           transform="translate(0,0.20600128)"
           y="81.106934"
           x="14.079605"
           height="12.232576"
           width="134.9375"
           id="rect815-2-2"
           style="fill:#e77f89;fill-opacity:1;stroke-width:0.07159424" />
        <rect
           style="fill:#ffffff;fill-opacity:1;stroke-width:0.04116824"
           id="rect815-2-2-1"
           width="25.36302"
           height="21.518803"
           x="74.56102"
           y="-143.53644"
           transform="rotate(90)" />
      </g>
      <g
         transform="translate(-17.42895,1.2334217)"
         id="g1749">
        <path
           style="fill:#e77f89;fill-opacity:1;stroke-width:0.14400283"
           d="M 108.22398,50.573747 A 18.50678,18.50678 0 0 0 89.716889,69.08036 h 1.40065 A 17.106238,17.106238 0 0 1 108.22398,51.974398 Z"
           id="path1358"
           inkscape:connector-curvature="0" />
        <g
           id="g1741">
          <g
             transform="translate(246.37187,-3.6579269)"
             id="g1715">
            <rect
               style="fill:#e77f89;fill-opacity:1;stroke-width:0.26458332"
               id="rect1703"
               width="68.413696"
               height="35.529762"
               x="-144.3869"
               y="30.526787"
               ry="10.147696" />
            <ellipse
               transform="rotate(-13.727097)"
               ry="4.1577382"
               rx="3.7797618"
               cy="15.280791"
               cx="-140.95103"
               id="path883"
               style="fill:#ffffff;fill-opacity:1;stroke-width:0.26458332" />
          </g>
          <path
             inkscape:connector-curvature="0"
             id="path1401"
             d="m 126.61795,31.361486 0.61903,3.002687 a 5.6218608,5.6218608 0 0 0 -2.23729,3.491754 5.6218608,5.6218608 0 0 0 4.3084,6.554411 l 1.16112,5.632163 a 3.165605,3.165605 0 0 1 -0.33714,-0.271714 l -0.50904,2.63116 a 5.6218611,5.6218611 0 0 0 1.44384,0.539565 l 0.56278,2.729848 1.26614,-0.261027 -0.48084,-2.332403 a 5.6218611,5.6218611 0 0 0 1.67507,-0.295312 l 0.47095,2.28442 1.26614,-0.261025 -0.53588,-2.599366 a 5.6218611,5.6218611 0 0 0 2.51916,-3.67811 5.6218611,5.6218611 0 0 0 -4.45149,-6.587438 5.6218611,5.6218611 0 0 0 -0.18953,-0.02677 l -1.19524,-5.797648 a 3.165605,3.165605 0 0 1 0.70388,0.497002 l 0.50904,-2.631161 a 5.6218608,5.6218608 0 0 0 -1.59991,-0.57808 5.6218608,5.6218608 0 0 0 -0.17736,-0.0252 l -0.59437,-2.883097 -1.26614,0.261025 0.52943,2.56803 a 5.6218608,5.6218608 0 0 0 -1.65592,0.388218 l -0.53869,-2.612953 z m 3.33545,4.447746 a 3.165605,3.165605 0 0 1 0.62704,-0.05028 l 1.25852,6.104643 a 5.6218611,5.6218611 0 0 0 -0.17905,0.01165 3.165605,3.165605 0 0 1 -1.5153,0.190144 l -1.21151,-5.876604 a 3.165605,3.165605 0 0 1 1.02031,-0.37955 z m -2.12033,1.446362 0.87925,4.264913 a 3.165605,3.165605 0 0 1 -1.30114,-3.197922 3.165605,3.165605 0 0 1 0.42189,-1.066991 z m 2.82163,7.284062 a 5.6218608,5.6218608 0 0 0 0.49548,-0.03043 3.165605,3.165605 0 0 1 1.19065,-0.21126 l 1.24652,6.046377 a 3.165605,3.165605 0 0 1 -1.68275,0.258104 z m 3.07758,0.105136 a 3.165605,3.165605 0 0 1 1.66662,3.41709 3.165605,3.165605 0 0 1 -0.66988,1.417735 z"
             style="fill:#e74d3c;fill-opacity:1;stroke-width:0.06398866" />
        </g>
      </g>
      <rect
         y="70.313751"
         x="81.548355"
         height="167.06544"
         width="67.46875"
         id="rect1965"
         style="fill:#000000;fill-opacity:0.12935324;stroke-width:0.61594486" />
    </g>
  </g>
</svg>
