<?xml version="1.0" encoding="UTF-8" standalone="no"?>
<!-- Created with Inkscape (http://www.inkscape.org/) -->

<svg
   xmlns:dc="http://purl.org/dc/elements/1.1/"
   xmlns:cc="http://creativecommons.org/ns#"
   xmlns:rdf="http://www.w3.org/1999/02/22-rdf-syntax-ns#"
   xmlns:svg="http://www.w3.org/2000/svg"
   xmlns="http://www.w3.org/2000/svg"
   xmlns:sodipodi="http://sodipodi.sourceforge.net/DTD/sodipodi-0.dtd"
   xmlns:inkscape="http://www.inkscape.org/namespaces/inkscape"
   width="210mm"
   height="297mm"
   viewBox="0 0 210 297"
   version="1.1"
   id="svg8"
   inkscape:version="0.92.3 (2405546, 2018-03-11)"
   sodipodi:docname="book.svg">
  <defs
     id="defs2" />
  <sodipodi:namedview
     id="base"
     pagecolor="#ffffff"
     bordercolor="#666666"
     borderopacity="1.0"
     inkscape:pageopacity="0.0"
     inkscape:pageshadow="2"
     inkscape:zoom="0.49497475"
     inkscape:cx="-219.8089"
     inkscape:cy="732.87275"
     inkscape:document-units="mm"
     inkscape:current-layer="layer1"
     showgrid="false"
     showguides="false"
     inkscape:window-width="1920"
     inkscape:window-height="1001"
     inkscape:window-x="-9"
     inkscape:window-y="-9"
     inkscape:window-maximized="1"
     inkscape:snap-bbox="false"
     inkscape:snap-bbox-midpoints="true"
     inkscape:snap-bbox-edge-midpoints="true"
     inkscape:bbox-nodes="true"
     inkscape:snap-object-midpoints="true" />
  <metadata
     id="metadata5">
    <rdf:RDF>
      <cc:Work
         rdf:about="">
        <dc:format>image/svg+xml</dc:format>
        <dc:type
           rdf:resource="http://purl.org/dc/dcmitype/StillImage" />
        <dc:title></dc:title>
      </cc:Work>
    </rdf:RDF>
  </metadata>
  <g
     inkscape:label="Layer 1"
     inkscape:groupmode="layer"
     id="layer1">
    <g
       id="g887"
       transform="rotate(-13.727097,253.32995,-122.45185)" />
    <rect
       style="fill:#6b58f0;fill-opacity:1;stroke-width:0.2701475"
       id="rect1356"
       width="33.826515"
       height="20.585247"
       x="293.68985"
       y="54.150299"
       transform="scale(-1,1)" />
    <rect
       style="fill:#6b58f0;fill-opacity:1;stroke-width:0.26124308"
       id="rect1469"
       width="102.80952"
       height="92.226196"
       x="245.30655"
       y="104.23215" />
    <g
       id="g1670"
       transform="translate(0,0.20600128)" />
    <rect
       y="70.313751"
       x="17.956961"
       height="167.06548"
       width="134.9375"
       id="rect815-6"
       style="fill:#b82717;fill-opacity:1;stroke-width:0.26458332" />
    <g
       id="g1863"
       style="">
      <rect
         style="fill:#e1aaaf;fill-opacity:1;stroke-width:0.25852796"
         id="rect815-0"
         width="134.9375"
         height="159.50595"
         x="16.239542"
         y="72.860123" />
      <g
         id="g1784"
         style="">
        <g
           id="g1735">
          <g
             id="g1687">
            <g
               id="g1690">
              <g
                 id="g1719">
                <rect
                   style="fill:#e74d3c;fill-opacity:1;stroke-width:0.26458332"
                   id="rect815"
                   width="134.9375"
                   height="167.06548"
                   x="14.079605"
                   y="70.313751" />
              </g>
            </g>
            <g
               id="g1208"
               transform="translate(-53.799196,29.744915)">
              <g
                 id="g1215"
                 transform="matrix(0.3280117,0,0,0.3280117,220.52458,38.616899)">
                <path
                   style="fill:#ffffff;fill-opacity:1;stroke-width:0.26458332"
                   d="m -378.73202,115.53513 a 34.999998,34.999998 0 0 0 -34.99993,34.99993 34.999998,34.999998 0 0 0 34.99993,35.00044 34.999998,34.999998 0 0 0 12.47366,-2.34094 v -17.02842 a 19.999999,19.999999 0 0 1 -12.47366,4.36925 19.999999,19.999999 0 0 1 -19.99981,-20.00033 19.999999,19.999999 0 0 1 19.99981,-19.99982 19.999999,19.999999 0 0 1 12.47366,4.39095 v -17.08216 a 34.999998,34.999998 0 0 0 -12.47366,-2.3089 z"
                   id="path1065"
                   inkscape:connector-curvature="0" />
                <path
                   inkscape:connector-curvature="0"
                   style="fill:#ffffff;fill-opacity:1;stroke-width:0.26458332"
                   d="m -317.72257,115.53512 a 34.999999,34.999999 0 0 0 -34.99992,34.99994 34.999999,34.999999 0 0 0 34.99992,35.00044 34.999999,34.999999 0 0 0 35.00045,-35.00044 34.999999,34.999999 0 0 0 -35.00045,-34.99994 z m 0,15.00012 a 20,20 0 0 1 20.00033,19.99982 20,20 0 0 1 -20.00033,20.00032 20,20 0 0 1 -19.99981,-20.00032 20,20 0 0 1 19.99981,-19.99982 z"
                   id="path1065-4" />
                <rect
                   style="fill:#ffffff;fill-opacity:1;stroke-width:0.26458332"
                   id="rect1101"
                   width="15"
                   height="70"
                   x="-181.63113"
                   y="115.53531" />
                <path
                   style="fill:#ffffff;fill-opacity:1;stroke-width:0.3037211"
                   d="m -269.18625,115.53532 v 69.99999 h 15.00012 V 155.0674 l 13.34905,30.46791 h 17.3209 l 13.34905,-30.46791 v 30.46791 h 15.00013 v -69.99999 h -15.00013 l -22.0095,50.23395 -22.0095,-50.23395 z"
                   id="rect1101-2"
                   inkscape:connector-curvature="0" />
                <path
                   style="fill:#ffffff;fill-opacity:1;stroke-width:0.26458332"
                   d="m -118.09531,115.53513 a 34.999999,34.999999 0 0 0 -34.99993,34.99993 34.999999,34.999999 0 0 0 34.99993,35.00044 34.999999,34.999999 0 0 0 12.47366,-2.34094 v -17.02842 a 19.999999,19.999999 0 0 1 -12.47366,4.36925 19.999999,19.999999 0 0 1 -19.99981,-20.00033 19.999999,19.999999 0 0 1 19.99981,-19.99982 19.999999,19.999999 0 0 1 12.47366,4.39095 v -17.08216 a 34.999999,34.999999 0 0 0 -12.47366,-2.3089 z"
                   id="path1065-49"
                   inkscape:connector-curvature="0" />
              </g>
            </g>
          </g>
          <g
             id="g1677">
            <rect
               transform="translate(0,0.20600128)"
               y="81.106934"
               x="14.079605"
               height="12.232576"
               width="134.9375"
               id="rect815-2-2"
               style="fill:#e77f89;fill-opacity:1;stroke-width:0.07159424" />
            <rect
               style="fill:#ffffff;fill-opacity:1;stroke-width:0.04116824"
               id="rect815-2-2-1"
               width="25.36302"
               height="21.518803"
               x="74.56102"
               y="-143.53644"
               transform="rotate(90)" />
          </g>
        </g>
        <g
           id="g1749">
          <path
             inkscape:connector-curvature="0"
             id="path1358"
             d="M 108.22398,50.573747 A 18.50678,18.50678 0 0 0 89.716889,69.08036 h 1.40065 A 17.106238,17.106238 0 0 1 108.22398,51.974398 Z"
             style="fill:#e77f89;fill-opacity:1;stroke-width:0.14400283" />
          <g
             id="g1741">
            <g
               id="g1715"
               transform="translate(246.37187,-3.6579269)">
              <rect
                 ry="10.147696"
                 y="30.526787"
                 x="-144.3869"
                 height="35.529762"
                 width="68.413696"
                 id="rect1703"
                 style="fill:#e77f89;fill-opacity:1;stroke-width:0.26458332" />
              <ellipse
                 style="fill:#ffffff;fill-opacity:1;stroke-width:0.26458332"
                 id="path883"
                 cx="-140.95103"
                 cy="15.280791"
                 rx="3.7797618"
                 ry="4.1577382"
                 transform="rotate(-13.727097)" />
            </g>
            <path
               style="fill:#e74d3c;fill-opacity:1;stroke-width:0.06398866"
               d="m 126.61795,31.361486 0.61903,3.002687 a 5.6218608,5.6218608 0 0 0 -2.23729,3.491754 5.6218608,5.6218608 0 0 0 4.3084,6.554411 l 1.16112,5.632163 a 3.165605,3.165605 0 0 1 -0.33714,-0.271714 l -0.50904,2.63116 a 5.6218611,5.6218611 0 0 0 1.44384,0.539565 l 0.56278,2.729848 1.26614,-0.261027 -0.48084,-2.332403 a 5.6218611,5.6218611 0 0 0 1.67507,-0.295312 l 0.47095,2.28442 1.26614,-0.261025 -0.53588,-2.599366 a 5.6218611,5.6218611 0 0 0 2.51916,-3.67811 5.6218611,5.6218611 0 0 0 -4.45149,-6.587438 5.6218611,5.6218611 0 0 0 -0.18953,-0.02677 l -1.19524,-5.797648 a 3.165605,3.165605 0 0 1 0.70388,0.497002 l 0.50904,-2.631161 a 5.6218608,5.6218608 0 0 0 -1.59991,-0.57808 5.6218608,5.6218608 0 0 0 -0.17736,-0.0252 l -0.59437,-2.883097 -1.26614,0.261025 0.52943,2.56803 a 5.6218608,5.6218608 0 0 0 -1.65592,0.388218 l -0.53869,-2.612953 z m 3.33545,4.447746 a 3.165605,3.165605 0 0 1 0.62704,-0.05028 l 1.25852,6.104643 a 5.6218611,5.6218611 0 0 0 -0.17905,0.01165 3.165605,3.165605 0 0 1 -1.5153,0.190144 l -1.21151,-5.876604 a 3.165605,3.165605 0 0 1 1.02031,-0.37955 z m -2.12033,1.446362 0.87925,4.264913 a 3.165605,3.165605 0 0 1 -1.30114,-3.197922 3.165605,3.165605 0 0 1 0.42189,-1.066991 z m 2.82163,7.284062 a 5.6218608,5.6218608 0 0 0 0.49548,-0.03043 3.165605,3.165605 0 0 1 1.19065,-0.21126 l 1.24652,6.046377 a 3.165605,3.165605 0 0 1 -1.68275,0.258104 z m 3.07758,0.105136 a 3.165605,3.165605 0 0 1 1.66662,3.41709 3.165605,3.165605 0 0 1 -0.66988,1.417735 z"
               id="path1401"
               inkscape:connector-curvature="0" />
          </g>
        </g>
      </g>
    </g>
    <rect
       style="fill:#e74d3c;fill-opacity:1;stroke-width:0.26458332"
       id="rect815-4"
       width="134.9375"
       height="167.06548"
       x="-127.87166"
       y="161.61697" />
    <circle
       style="fill:#000000;fill-opacity:0.12935324;stroke-width:0.26458332"
       id="path1949"
       cx="-60.402908"
       cy="229.11354"
       r="53.453903" />
    <rect
       style="fill:#000000;fill-opacity:0.12935324;stroke-width:0.48483765"
       id="rect1965"
       width="70.141441"
       height="99.568878"
       x="-127.87166"
       y="229.11354" />
  </g>
</svg>
