<?xml version="1.0" encoding="UTF-8" standalone="no"?>
<!-- Created with Inkscape (http://www.inkscape.org/) -->

<svg
   xmlns:dc="http://purl.org/dc/elements/1.1/"
   xmlns:cc="http://creativecommons.org/ns#"
   xmlns:rdf="http://www.w3.org/1999/02/22-rdf-syntax-ns#"
   xmlns:svg="http://www.w3.org/2000/svg"
   xmlns="http://www.w3.org/2000/svg"
   xmlns:sodipodi="http://sodipodi.sourceforge.net/DTD/sodipodi-0.dtd"
   xmlns:inkscape="http://www.inkscape.org/namespaces/inkscape"
   width="210mm"
   height="297mm"
   viewBox="0 0 210 297"
   version="1.1"
   id="svg8"
   inkscape:version="0.92.3 (2405546, 2018-03-11)"
   sodipodi:docname="dollar.svg">
  <defs
     id="defs2" />
  <sodipodi:namedview
     id="base"
     pagecolor="#ffffff"
     bordercolor="#666666"
     borderopacity="1.0"
     inkscape:pageopacity="0.0"
     inkscape:pageshadow="2"
     inkscape:zoom="0.31640791"
     inkscape:cx="-509.95374"
     inkscape:cy="732.22044"
     inkscape:document-units="mm"
     inkscape:current-layer="layer1"
     showgrid="false"
     inkscape:measure-start="-431.315,1053.71"
     inkscape:measure-end="0,0"
     inkscape:snap-object-midpoints="false"
     inkscape:snap-intersection-paths="false"
     inkscape:snap-smooth-nodes="true"
     inkscape:window-width="1920"
     inkscape:window-height="1001"
     inkscape:window-x="-9"
     inkscape:window-y="-9"
     inkscape:window-maximized="1" />
  <metadata
     id="metadata5">
    <rdf:RDF>
      <cc:Work
         rdf:about="">
        <dc:format>image/svg+xml</dc:format>
        <dc:type
           rdf:resource="http://purl.org/dc/dcmitype/StillImage" />
        <dc:title></dc:title>
      </cc:Work>
    </rdf:RDF>
  </metadata>
  <g
     inkscape:label="Layer 1"
     inkscape:groupmode="layer"
     id="layer1">
    <circle
       style="fill:#86e2a0;fill-opacity:1;stroke-width:0.26458332"
       id="path4524"
       cx="106.95079"
       cy="116.64365"
       r="74.798126" />
    <g
       id="g924"
       transform="matrix(0.56595653,0,0,0.56595653,-95.635234,110.88619)">
      <g
         transform="matrix(0.66199991,0.25673927,-0.25673927,0.66199991,592.49876,26.304414)"
         id="g895">
        <path
           inkscape:connector-curvature="0"
           style="fill:#ffffff;fill-opacity:1;stroke-width:0.99999994"
           d="m -1266.0117,-139.02148 a 282.70157,282.70157 0 0 0 -282.7012,282.70117 282.70157,282.70157 0 0 0 282.7012,282.70117 282.70157,282.70157 0 0 0 80.4531,-11.9082 V 277.82617 a 140.04607,140.04607 0 0 1 -39.8555,5.89844 140.04607,140.04607 0 0 1 -140.0449,-140.04492 140.04607,140.04607 0 0 1 140.0449,-140.0449244 140.04607,140.04607 0 0 1 39.8555,5.8632813 V -127.18555 a 282.70157,282.70157 0 0 0 -80.4531,-11.83593 z"
           transform="scale(0.26458333)"
           id="path4524-9" />
        <path
           inkscape:connector-curvature="0"
           style="fill:#ffffff;fill-opacity:1;stroke-width:0.26458332"
           d="m -292.39249,219.95349 a 74.798124,74.798124 0 0 0 74.79803,-74.79801 74.798124,74.798124 0 0 0 -74.79803,-74.798023 74.798124,74.798124 0 0 0 -21.28655,3.15072 v 36.154383 a 37.053856,37.053856 0 0 1 10.54511,-1.56063 37.053856,37.053856 0 0 1 37.05354,37.05355 37.053856,37.053856 0 0 1 -37.05354,37.05355 37.053856,37.053856 0 0 1 -10.54511,-1.55132 v 36.16419 a 74.798124,74.798124 0 0 0 21.28655,3.13159 z"
           id="path4524-9-8" />
      </g>
      <g
         transform="matrix(0.7100415,0,0,0.7100415,581.95563,-58.785447)"
         id="g916">
        <rect
           style="fill:#ffffff;fill-opacity:1;stroke-width:0.15439864"
           id="rect897"
           width="13.599658"
           height="319.29633"
           x="-332.47644"
           y="-69.633812" />
        <rect
           style="fill:#ffffff;fill-opacity:1;stroke-width:0.15439864"
           id="rect897-6"
           width="13.599658"
           height="319.29633"
           x="-304.21841"
           y="-68.416901" />
      </g>
    </g>
    <path
       inkscape:connector-curvature="0"
       style="opacity:0.23000004;fill:#000000;fill-opacity:0.28358208;stroke-width:0.26458332"
       d="M 106.95058,41.845507 V 191.44154 a 74.798125,74.798125 0 0 0 74.79853,-74.79802 74.798125,74.798125 0 0 0 -74.79853,-74.798013 z"
       id="path4524-7" />
  </g>
</svg>
